HIERARCHY
ROOT Hips
{
	OFFSET 0.00000 0.00000 0.00000
	CHANNELS 6 Xposition Yposition Zposition Zrotation Yrotation Xrotation 
	JOINT LHipJoint
	{
		OFFSET 0 0 0
		CHANNELS 3 Zrotation Yrotation Xrotation
		JOINT LeftHip
		{
			OFFSET 1.92384 -1.64427 0.83032
			CHANNELS 3 Zrotation Yrotation Xrotation
			JOINT LeftKnee
			{
				OFFSET 2.52872 -6.94761 0.00000
				CHANNELS 3 Zrotation Yrotation Xrotation
				JOINT LeftAnkle
				{
					OFFSET 2.51827 -6.91890 0.00000
					CHANNELS 3 Zrotation Yrotation Xrotation
					JOINT LeftToe
					{
						OFFSET 0.22757 -0.62524 2.06528
						CHANNELS 3 Zrotation Yrotation Xrotation
						End Site
						{
							OFFSET 0.00000 -0.00000 1.08218
						}
					}
				}
			}
		}
	}
	JOINT RHipJoint
	{
		OFFSET 0 0 0
		CHANNELS 3 Zrotation Yrotation Xrotation
		JOINT RightHip
		{
			OFFSET -2.09517 -1.64427 0.83032
			CHANNELS 3 Zrotation Yrotation Xrotation
			JOINT RightKnee
			{
				OFFSET -2.55173 -7.01082 0.00000
				CHANNELS 3 Zrotation Yrotation Xrotation
				JOINT RightAnkle
				{
					OFFSET -2.50265 -6.87598 0.00000
					CHANNELS 3 Zrotation Yrotation Xrotation
					JOINT RightToe
					{
						OFFSET -0.22612 -0.62126 1.98677
						CHANNELS 3 Zrotation Yrotation Xrotation
						End Site
						{
							OFFSET -0.00000 -0.00000 1.04433
						}
					}
				}
			}
		}
	}
	JOINT lowerback
	{
		OFFSET 0 0 0
		CHANNELS 3 Zrotation Yrotation Xrotation
		JOINT Chest
		{
			OFFSET 0.02839 1.68926 0.31690
			CHANNELS 3 Zrotation Yrotation Xrotation
			JOINT Chest2
			{
				OFFSET -0.01522 1.70183 0.21192
				CHANNELS 3 Zrotation Yrotation Xrotation
				JOINT lowerneck
				{
					OFFSET 0 0 0
					CHANNELS 3 Zrotation Yrotation Xrotation
					JOINT Neck
					{
						OFFSET -0.04523 1.88988 0.10630
						CHANNELS 3 Zrotation Yrotation Xrotation
						JOINT Head
						{
							OFFSET 0.05172 1.78070 -0.56858
							CHANNELS 3 Zrotation Yrotation Xrotation
							End Site
							{
								OFFSET 0.01532 1.90392 -0.20434
							}
						}
					}
				}
				JOINT LeftCollar
				{
					OFFSET 0 0 0
					CHANNELS 3 Zrotation Yrotation Xrotation
					JOINT LeftShoulder
					{
						OFFSET 3.25522 0.75486 0.22086
CHANNELS 3 Zrotation Xrotation Yrotation
						JOINT LeftElbow
						{
OFFSET 0 -4.856450 0.000000
CHANNELS 3 Zrotation Xrotation Yrotation
							JOINT LeftWrist
							{
OFFSET 0 -2.798740 0.000000
CHANNELS 3 Zrotation Xrotation Yrotation
								JOINT lhand
								{
									OFFSET 0 0 0
CHANNELS 3 Zrotation Xrotation Yrotation
									JOINT LFingers
									{
OFFSET 0 -0.573400 0.000000
CHANNELS 3 Zrotation Xrotation Yrotation
										End Site
										{
OFFSET 0 -0.462290 0.000000
										}
									}
								}
								JOINT LThumb
								{
OFFSET 0 0.000000 0.000000
CHANNELS 3 Zrotation Xrotation Yrotation
									End Site
									{
OFFSET 0 -0.469350 0.469350
									}
								}
							}
						}
					}
				}
				JOINT RightCollar
				{
					OFFSET 0 0 0
					CHANNELS 3 Zrotation Yrotation Xrotation
					JOINT RightShoulder
					{
						OFFSET -3.29079 0.52751 0.36356
CHANNELS 3 Zrotation Xrotation Yrotation
						JOINT RightElbow
						{
OFFSET 0 -4.670180 0.000000
CHANNELS 3 Zrotation Xrotation Yrotation
							JOINT RightWrist
							{
OFFSET 0 -2.655340 0.000000
CHANNELS 3 Zrotation Xrotation Yrotation
								JOINT rhand
								{
									OFFSET 0 0 0
CHANNELS 3 Zrotation Xrotation Yrotation
									JOINT RFingers
									{
OFFSET 0 -0.594070 0.000000
CHANNELS 3 Zrotation Xrotation Yrotation
										End Site
										{
OFFSET 0 -0.478950 0.000000
										}
									}
								}
								JOINT RThumb
								{
OFFSET 0 0.000000 0.000000
CHANNELS 3 Zrotation Xrotation Yrotation
									End Site
									{
OFFSET 0 -0.486270 0.486270
									}
								}
							}
						}
					}
				}
			}
		}
	}
}
MOTION
Frames: 5
Frame Time: 0.008333333333333333
5.631500 17.015800 13.547800 18.191600 -2.232600 32.976700 0.000000 0.000000 0.000000 -39.218700 -17.395200 -25.288000 0.000000 0.000000 0.000000 0.000600 0.095200 -0.495300 0.621700 -5.045700 -14.039100 0.000000 0.000000 0.000000 -29.532200 38.308100 -36.602100 -4.487600 -12.782400 38.559500 -8.452300 -14.103300 -59.909600 -2.091500 -9.054200 25.965100 24.595800 5.693000 -23.118200 5.337400 2.506100 -14.195400 -6.374500 -0.224700 -3.084500 22.763500 13.081800 -9.331200 -7.763200 17.301100 38.933500 -3.828100 9.711800 19.623600 0.000000 -0.000000 0.000000 48.471200 29.297400 -127.504700 83.369300 -59.833200 54.260800 54.171600 35.137100 -24.379000 0.000000 0.000000 0.000000 -7.125000 0.000000 0.000000 34.652700 64.458600 -17.302400 0.000000 -0.000000 0.000000 -62.118000 51.947200 123.833800 -111.215300 -58.229100 -78.263700 -73.014800 91.951800 24.184200 0.000000 0.000000 0.000000 7.125000 0.000000 -0.000000 -87.488700 67.416400 62.732400
5.633490 17.013475 13.549645 18.315292 -2.318519 33.139917 0.000000 0.000000 0.000000 -39.335257 -17.504941 -25.431786 0.000000 0.000000 0.000000 0.000600 0.071384 -0.483498 0.615620 -5.021679 -13.970417 0.000000 0.000000 0.000000 -29.927257 38.435614 -36.807306 -4.504011 -12.802492 38.633396 -8.549813 -13.968736 -60.156845 -2.126066 -9.123833 26.183423 24.771833 5.658675 -22.968574 5.539708 2.458206 -14.116286 -6.253421 -0.246230 -3.093861 23.011920 13.035090 -9.405087 -7.603269 17.028311 38.905775 -3.850645 9.647083 19.577675 0.000000 0.000000 0.000000 48.106168 29.330725 -127.417116 83.003077 -59.814179 53.944280 54.414926 35.462148 -24.486582 0.000000 0.000000 0.000000 -7.125000 0.000000 0.000000 35.208662 64.666712 -17.781355 0.000000 0.000000 0.000000 -62.815155 51.798958 124.295220 -112.052394 -58.080263 -78.974833 -72.818267 91.820283 24.059783 0.000000 0.000000 0.000000 7.125000 0.000000 0.000000 -86.414966 67.397727 61.576160
5.638261 17.008830 13.552280 18.437276 -2.296319 33.231606 0.000000 0.000000 0.000000 -39.436233 -17.648076 -25.464838 0.000000 0.000000 0.000000 0.000410 0.064769 -0.428892 0.616390 -5.024741 -13.979133 0.000000 0.000000 0.000000 -30.097590 38.329123 -36.910373 -4.531633 -12.836093 38.758122 -8.563949 -13.923770 -60.183438 -2.121698 -9.115197 26.156311 24.933129 5.661789 -22.854494 5.632466 2.457235 -14.064092 -6.231153 -0.249162 -3.098767 23.171285 13.009717 -9.397561 -7.445042 16.870389 39.068814 -3.837502 9.629970 19.646392 0.000000 0.000000 0.000000 47.881478 29.194484 -127.428119 82.707853 -59.798098 53.689107 54.506718 35.693514 -24.544729 0.000000 0.000000 0.000000 -7.125000 0.000000 0.000000 35.436305 64.765970 -17.990720 0.000000 0.000000 0.000000 -63.184413 51.566271 124.642618 -112.583971 -57.982230 -79.425873 -72.717404 91.671894 23.961548 0.000000 0.000000 0.000000 7.125000 0.000000 0.000000 -85.772014 67.365749 60.861668
5.644506 17.004894 13.556441 18.507760 -2.201744 33.227031 0.000000 0.000000 0.000000 -39.492225 -17.751167 -25.379888 0.000000 0.000000 0.000000 0.000400 0.066993 -0.420717 0.619030 -5.035253 -14.009095 0.000000 0.000000 0.000000 -30.055682 38.202556 -36.840186 -4.551593 -12.860299 38.847849 -8.565658 -13.906808 -60.182616 -2.112335 -9.096170 26.096711 25.031349 5.662420 -22.762112 5.752994 2.458260 -13.999532 -6.149369 -0.241502 -3.078995 23.205410 12.968586 -9.407684 -7.300062 16.728955 39.221841 -3.807906 9.601174 19.698186 0.000000 0.000000 0.000000 47.649019 29.162121 -127.320208 82.580648 -59.790965 53.579183 54.629916 35.859067 -24.594133 0.000000 0.000000 0.000000 -7.125000 0.000000 0.000000 35.718817 64.865041 -18.232423 0.000000 0.000000 0.000000 -63.539439 51.421156 124.921021 -112.922602 -57.918349 -79.712827 -72.848520 92.060371 24.004559 0.000000 0.000000 0.000000 7.125000 0.000000 0.000000 -86.380555 67.359633 61.489980
5.646920 17.001059 13.559480 18.628216 -2.202235 33.190332 0.000000 0.000000 0.000000 -39.633344 -17.786262 -25.294308 0.000000 0.000000 0.000000 0.000500 0.074803 -0.444192 0.611218 -5.003773 -13.919199 0.000000 0.000000 0.000000 -30.099681 38.081477 -36.812567 -4.578827 -12.893148 38.969932 -8.551217 -13.863174 -60.122915 -2.104194 -9.079888 26.045562 25.136788 5.737536 -22.591884 5.715009 2.579272 -13.944792 -6.220000 -0.183967 -3.063148 23.251992 12.884902 -9.628350 -7.234912 16.494123 39.318897 -3.832256 9.516324 19.761841 0.000000 0.000000 0.000000 47.649615 29.153163 -127.116066 82.495282 -59.786138 53.505347 54.438392 35.683212 -24.471870 0.000000 0.000000 0.000000 -7.125000 0.000000 0.000000 35.240710 64.656639 -17.791414 0.000000 0.000000 0.000000 -63.470005 51.446833 124.964383 -113.058657 -57.892373 -79.828032 -73.013617 92.539743 24.079654 0.000000 0.000000 0.000000 7.125000 0.000000 0.000000 -87.203801 67.359964 62.357111
